<svg xmlns="http://www.w3.org/2000/svg" width="988" height="241" viewBox="0 0 988 241" fill="none"><path d="M435.534 0.000147672C437.222 -0.105872 550.372 56.9085 564.172 63.6833C559.21 71.4966 551.43 81.3998 545.717 89.1771L515.163 130.903L434.874 240.446C433.008 238.671 426.162 229.423 424.371 227.053C414.757 214.092 405.229 201.068 395.789 187.98C365.89 147.274 333.518 104.965 305.102 63.4771C308.763 61.9243 313.877 59.1206 317.589 57.3111L344.028 44.3554C363.006 34.9069 382.812 25.6755 401.904 16.3363C413.101 10.8594 424.126 5.02927 435.534 0.000147672ZM316.265 66.6194C330.714 85.0078 346.046 107.109 360.074 126.111L435.289 228.149C439.147 221.505 446.124 212.516 450.792 206.193L478.152 169.246L533.577 93.8186C540.195 84.893 546.871 75.2537 553.638 66.5456L470.966 25.7163C459.216 19.8781 446.364 13.7879 434.846 7.68382L361.375 44.1511C347.468 50.98 329.556 59.2305 316.265 66.6194Z" fill="#003A55"></path><path d="M505.771 51.3137C517.655 57.4753 530.336 63.5813 542.391 69.4833C530.832 84.1719 518.826 101.089 507.586 116.189C506.238 108.75 504.322 103.414 498.872 97.9405C489.136 88.1626 477.783 89.5383 465.145 89.5733L443.117 89.6367L395.141 89.7236C395.567 82.172 395.273 72.1955 395.286 64.4461L476.268 64.4979C476.575 67.9183 476.528 72.6016 476.589 76.1242C486.939 71.5414 497.351 67.0997 507.822 62.8002C507.092 58.9797 506.409 55.1506 505.771 51.3137Z" fill="#B62628"></path><path d="M366.543 49.9572C367.414 51.4256 364.662 57.099 364.787 59.263C365.734 75.7328 359.967 98.6687 372.775 111.541C384.621 123.446 403.558 120.526 418.981 120.534H476.199C476.646 127.809 476.443 138.202 476.221 145.582L433.652 145.455L395.258 145.595L395.365 133.618C391.126 135.898 384.66 138.508 380.186 140.299C362.725 116.989 345.448 92.4987 327.687 69.5684C338.372 63.3819 354.999 55.7946 366.543 49.9572Z" fill="#B62628"></path><path d="M406.798 176.37L462.957 176.522C457.399 183.685 451.983 190.957 446.71 198.332C442.679 203.488 438.795 208.756 435.062 214.132C431.165 209.702 426.667 202.888 423.046 197.882C417.736 190.632 412.32 183.46 406.798 176.37Z" fill="#B62628"></path><path d="M635.106 65.5106L638.848 65.4466C652.622 65.33 666.397 65.3143 680.171 65.3994C693.925 65.4323 704.562 62.7304 715.091 72.9894C723.792 85.7364 718.875 103.999 720.076 118.725C720.309 121.587 719.768 125.587 720.271 128.342C720.016 134.881 720.169 142.569 720.131 149.201C701.118 148.847 681.701 149.369 662.666 149.184C654.639 149.106 647.571 149.26 641.569 142.946C639.717 141.011 636.898 137.258 636.374 134.561C634.074 122.713 635.064 108.025 635.118 96.0336C654.528 96.7117 678.865 94.8246 697.823 96.1715C697.935 93.3727 697.829 90.4788 697.77 87.6721L635.149 87.7148C635.067 80.3137 635.053 72.912 635.106 65.5106ZM657.831 126.418C666.629 126.943 688.628 127.329 697.593 126.872L697.791 126.505C697.84 122.829 697.95 119.172 697.655 115.508C694.872 115.506 657.644 115.76 657.963 115.871C657.905 119.343 657.794 122.958 657.831 126.418Z" fill="#003A55"></path><path d="M217.783 65.6575C230.661 65.0626 244.414 65.8954 256.922 65.4412C276.294 64.7376 285.505 72.6658 285.043 92.3099C284.848 100.612 284.96 110.049 284.919 118.466L245.013 118.384C240.846 118.382 227.326 118.113 224.09 118.896C225.497 120.946 223.703 121.281 222.633 122.86C222.62 124.355 222.61 125.573 222.601 126.513C234.375 127.241 248.931 126.878 260.904 126.89L284.913 126.842C285.019 134.296 285.036 141.751 284.964 149.205C270.423 149.124 255.882 149.118 241.34 149.188C217.411 149.208 197.951 151.232 200.157 119.336C201.476 100.261 192.966 71.5944 217.783 65.6575ZM222.531 98.6066C235.309 99.2666 249.854 98.9556 262.798 99.0096L262.77 87.7389C258.737 87.7345 224.094 88.3377 222.676 87.9245L222.531 98.6066Z" fill="#003A55"></path><path d="M567.294 65.3655C575.621 65.4415 583.948 65.4668 592.275 65.4413C600.285 65.4554 607.446 65.1872 613.557 71.3846C616.113 74.0063 617.952 77.2398 618.899 80.7754C620.744 87.529 619.98 110.435 619.923 118.486C599.949 118.207 577.831 118.108 557.918 118.617C557.801 121.182 557.705 123.747 557.63 126.314C564.026 126.952 572.455 126.811 578.969 126.824L610.525 126.858L619.869 126.872C620.124 134.383 620.024 141.701 619.945 149.217C599.855 148.815 579.543 149.519 559.436 149.191C532.638 148.752 534.57 128.175 535.19 108.738C545.144 95.0608 557.009 78.6033 567.294 65.3655ZM557.5 98.3567C567.633 99.7847 586.853 98.5887 597.877 99.0727L597.824 87.7043C595.381 87.7101 557.639 88.1262 557.683 88.1413C557.615 91.4392 557.461 95.0895 557.5 98.3567Z" fill="#003A55"></path><path d="M0 45.126L96.145 44.9598C95.787 48.597 95.712 64.66 96.23 68.1216C73.934 67.9163 45.0798 67.2094 23.2338 68.2492C22.7884 73.2121 22.798 80.4485 23.0993 85.4965C41.6934 86.2625 62.9735 85.7567 81.761 85.7341C81.772 93.3561 81.879 101.183 81.773 108.787C76.318 108.132 64.259 108.38 58.2476 108.429C46.6709 108.524 34.3019 108.222 22.7997 108.61L22.7493 136.086C22.7526 138.556 22.6345 147.162 22.9838 149.244L0.0200005 149.06L0 45.126Z" fill="#003A55"></path><path d="M902.499 38.0339C909.936 37.9169 917.374 37.8817 924.811 37.9283C924.866 45.4213 925.331 58.0369 924.765 65.0478C938.098 65.8191 952.104 64.9717 965.486 65.4402C973 65.7034 977.64 68.0281 982.56 73.4306C989.37 82.8295 986.96 89.3756 987.39 100.297C987.45 101.788 987.29 104.953 987.57 106.252C987.3 120.476 987.79 134.828 987.48 149.185L964.988 149.102L964.995 87.7367C954.539 87.8024 944.083 87.7919 933.628 87.7052L924.887 87.8094C924.445 100.355 924.794 113.822 924.71 126.435C924.677 131.447 924.432 144.73 924.992 149.247C918.037 148.945 909.605 149.128 902.533 149.089C902.64 144.888 902.632 140.532 902.599 136.324C902.345 103.628 903.241 70.7118 902.499 38.0339Z" fill="#003A55"></path><path d="M105.324 65.2984L125.677 65.2199C126.038 78.7838 126.166 92.3529 126.058 105.921C126.061 110.961 125.754 121.083 126.257 125.53L126.617 125.279C127.301 122.149 127.25 117.325 127.32 113.985C127.314 116.74 127.8 119.642 128.085 122.4C128.33 124.768 128.233 123.953 127.085 125.987C128.337 127.204 161.686 126.861 165.972 126.871L165.977 65.5046C172.972 65.4877 181.304 65.4895 188.23 65.1522L188.355 76.0162C188.451 87.5312 190.018 128.66 186.265 137.031C184.128 141.86 180.129 145.622 175.177 147.464C164.483 151.482 136.141 147.988 123.533 149.015C120.594 148.888 118.212 148.074 115.488 147.136C98.401 141.256 104.042 108.694 103.304 96.6588C102.847 89.2169 103.141 67.1669 103.863 65.5868L105.324 65.2984Z" fill="#003A55"></path><path d="M891.105 149.249C869.606 148.755 847.627 149.67 826.484 149.003C811.343 148.526 804.334 134.428 806.064 121.336C808.385 103.78 798.219 73.1925 821.117 66.3894C826.442 64.8072 840.247 65.3626 845.772 65.3565L890.749 65.2939L890.775 87.8268C872.596 87.4936 853.648 87.8353 835.362 87.7267L828.253 87.7374L828.248 126.889C842.372 127.219 856.823 126.965 870.971 127.059C874.046 127.079 888.495 127.216 890.765 126.805L890.924 130.198C890.741 134.51 890.609 145.212 891.105 149.249Z" fill="#003A55"></path><path d="M774.336 65.299L798.447 65.2967C798.698 73.953 798.944 79.1835 798.472 87.7675L771.948 87.7292C764.897 87.6885 761.884 86.8147 755.003 89.1984L754.382 88.2677L753.715 88.2171C754.151 91.0926 753.809 103.564 753.796 107.043C753.872 119.381 753.879 131.72 753.818 144.059L753.677 149.229C746.208 149.146 738.737 149.141 731.268 149.213C730.829 143.036 731.128 134.582 731.164 128.132C731.244 116.859 731.247 105.586 731.173 94.3134C731.073 61.5664 748.997 65.3746 774.336 65.299Z" fill="#003A55"></path><path d="M295.084 37.9553L317.68 37.8242C317.779 43.0344 317.796 48.5169 318.099 53.6984C312.895 56.9098 307.652 57.4678 302.503 61.6128C301.326 66.8483 314.517 80.9805 317.912 87.8908C317.243 100.05 317.576 114.341 317.612 126.659C321.8 126.965 328.492 127.359 332.672 126.784L333.97 127.107C335.019 129.226 334.449 145.581 334.388 149.181C314.517 149.172 295.381 151.624 295.157 123.848C295.096 116.256 295.127 108.288 295.136 100.663L295.084 37.9553Z" fill="#003A55"></path><path d="M434.235 21.0037C436.436 20.7297 465.497 35.7605 469.939 37.8496C458.719 38.1468 446.89 37.9391 435.626 37.9127C423.723 37.8911 411.926 38.1546 400 37.9929C408.253 33.1336 425.054 25.4889 434.235 21.0037Z" fill="#B62628"></path></svg>